<svg viewBox="0 0 63 63" fill="none" xmlns="http://www.w3.org/2000/svg">
    <path d="M38.1567 6.65673L35.9548 28.928L56.3433 38.1567L34.072 35.9548L24.8433 56.3433L27.0452 34.072L6.65673 24.8433L28.928 27.0452L38.1567 6.65673Z" fill="currentColor"/>
    <path fill-rule="evenodd" clip-rule="evenodd" d="M31.5 11.8596C20.6529 11.8596 11.8595 20.6529 11.8595 31.5C11.8595 42.3472 20.6529 51.1405 31.5 51.1405C42.3471 51.1405 51.1405 42.3472 51.1405 31.5C51.1405 20.6529 42.3471 11.8596 31.5 11.8596ZM10.9243 31.5C10.9243 20.1364 20.1363 10.9243 31.5 10.9243C42.8637 10.9243 52.0757 20.1364 52.0757 31.5C52.0757 42.8637 42.8637 52.0757 31.5 52.0757C20.1363 52.0757 10.9243 42.8637 10.9243 31.5Z" fill="currentColor"/>
</svg>
